<svg version="1.1" viewBox="0.0 0.0 261.5538057742782 187.01837270341207" fill="none" stroke="none" stroke-linecap="square" stroke-miterlimit="10"
    xmlns:xlink="http://www.w3.org/1999/xlink"
    xmlns="http://www.w3.org/2000/svg">
        <rect x="0" y="0" width="100%" height="100%" fill="white" stroke="none"/>

    <clipPath id="p.0">
        <path d="m0 0l261.5538 0l0 187.01837l-261.5538 0l0 -187.01837z" clip-rule="nonzero"/>
    </clipPath>
    <g clip-path="url(#p.0)">
        <path fill="#000000" fill-opacity="0.0" d="m0 0l261.5538 0l0 187.01837l-261.5538 0z" fill-rule="evenodd"/>
        <path fill="#b6d7a8" d="m211.88487 17.393702l0 0c0 -5.9490204 4.822632 -10.771654 10.771652 -10.771654l0 0c2.8568115 0 5.596634 1.1348672 7.616699 3.1549444c2.0200806 2.0200768 3.154953 4.7598886 3.154953 7.6167097l0 0c0 5.9490185 -4.822632 10.771652 -10.771652 10.771652l0 0c-5.9490204 0 -10.771652 -4.8226337 -10.771652 -10.771652z" fill-rule="evenodd"/>
        <path stroke="#434343" stroke-width="1.0" stroke-linejoin="round" stroke-linecap="butt" d="m211.88487 17.393702l0 0c0 -5.9490204 4.822632 -10.771654 10.771652 -10.771654l0 0c2.8568115 0 5.596634 1.1348672 7.616699 3.1549444c2.0200806 2.0200768 3.154953 4.7598886 3.154953 7.6167097l0 0c0 5.9490185 -4.822632 10.771652 -10.771652 10.771652l0 0c-5.9490204 0 -10.771652 -4.8226337 -10.771652 -10.771652z" fill-rule="evenodd"/>
        <path fill="#000000" fill-opacity="0.0" d="m221.86053 28.165354l0 34.425194" fill-rule="evenodd"/>
        <path stroke="#434343" stroke-width="1.0" stroke-linejoin="round" stroke-linecap="butt" d="m221.86053 28.165354l0 34.425194" fill-rule="evenodd"/>
        <path fill="#000000" fill-opacity="0.0" d="m237.79527 44.165356l-31.086609 0" fill-rule="evenodd"/>
        <path stroke="#434343" stroke-width="1.0" stroke-linejoin="round" stroke-linecap="butt" d="m237.79527 44.165356l-31.086609 0" fill-rule="evenodd"/>
        <path fill="#000000" fill-opacity="0.0" d="m238.58495 84.772964l-16.724411 -23.11811" fill-rule="evenodd"/>
        <path stroke="#434343" stroke-width="1.0" stroke-linejoin="round" stroke-linecap="butt" d="m238.58495 84.772964l-16.724411 -23.11811" fill-rule="evenodd"/>
        <path fill="#000000" fill-opacity="0.0" d="m205.24794 85.273926l16.724411 -23.11811" fill-rule="evenodd"/>
        <path stroke="#434343" stroke-width="1.0" stroke-linejoin="round" stroke-linecap="butt" d="m205.24794 85.273926l16.724411 -23.11811" fill-rule="evenodd"/>
        <path fill="#b4a7d6" d="m24.365181 18.215223l0 0c0 -5.9490204 4.8226337 -10.771654 10.771652 -10.771654l0 0c2.856823 0 5.596634 1.1348672 7.6167107 3.154944c2.0200768 2.0200768 3.1549454 4.7598896 3.1549454 7.6167097l0 0c0 5.9490204 -4.8226357 10.771654 -10.771656 10.771654l0 0c-5.9490185 0 -10.771652 -4.8226337 -10.771652 -10.771654z" fill-rule="evenodd"/>
        <path stroke="#434343" stroke-width="1.0" stroke-linejoin="round" stroke-linecap="butt" d="m24.365181 18.215223l0 0c0 -5.9490204 4.8226337 -10.771654 10.771652 -10.771654l0 0c2.856823 0 5.596634 1.1348672 7.6167107 3.154944c2.0200768 2.0200768 3.1549454 4.7598896 3.1549454 7.6167097l0 0c0 5.9490204 -4.8226357 10.771654 -10.771656 10.771654l0 0c-5.9490185 0 -10.771652 -4.8226337 -10.771652 -10.771654z" fill-rule="evenodd"/>
        <path fill="#000000" fill-opacity="0.0" d="m34.340855 28.986877l0 34.425198" fill-rule="evenodd"/>
        <path stroke="#434343" stroke-width="1.0" stroke-linejoin="round" stroke-linecap="butt" d="m34.340855 28.986877l0 34.425198" fill-rule="evenodd"/>
        <path fill="#000000" fill-opacity="0.0" d="m50.27559 44.986877l-31.086613 0" fill-rule="evenodd"/>
        <path stroke="#434343" stroke-width="1.0" stroke-linejoin="round" stroke-linecap="butt" d="m50.27559 44.986877l-31.086613 0" fill-rule="evenodd"/>
        <path fill="#000000" fill-opacity="0.0" d="m51.065266 85.59449l-16.724411 -23.11811" fill-rule="evenodd"/>
        <path stroke="#434343" stroke-width="1.0" stroke-linejoin="round" stroke-linecap="butt" d="m51.065266 85.59449l-16.724411 -23.11811" fill-rule="evenodd"/>
        <path fill="#000000" fill-opacity="0.0" d="m17.728252 86.09545l16.724407 -23.118114" fill-rule="evenodd"/>
        <path stroke="#434343" stroke-width="1.0" stroke-linejoin="round" stroke-linecap="butt" d="m17.728252 86.09545l16.724407 -23.118114" fill-rule="evenodd"/>
        <path fill="#ffe599" d="m115.90054 91.71066l0 0c0 -5.9490204 4.822632 -10.771652 10.771652 -10.771652l0 0c2.8568268 0 5.596634 1.1348648 7.6167145 3.1549454c2.0200806 2.020073 3.1549377 4.7598877 3.1549377 7.616707l0 0c0 5.9490204 -4.822632 10.771652 -10.771652 10.771652l0 0c-5.9490204 0 -10.771652 -4.822632 -10.771652 -10.771652z" fill-rule="evenodd"/>
        <path stroke="#434343" stroke-width="1.0" stroke-linejoin="round" stroke-linecap="butt" d="m115.90054 91.71066l0 0c0 -5.9490204 4.822632 -10.771652 10.771652 -10.771652l0 0c2.8568268 0 5.596634 1.1348648 7.6167145 3.1549454c2.0200806 2.020073 3.1549377 4.7598877 3.1549377 7.616707l0 0c0 5.9490204 -4.822632 10.771652 -10.771652 10.771652l0 0c-5.9490204 0 -10.771652 -4.822632 -10.771652 -10.771652z" fill-rule="evenodd"/>
        <path fill="#000000" fill-opacity="0.0" d="m125.87622 102.482315l0 34.4252" fill-rule="evenodd"/>
        <path stroke="#434343" stroke-width="1.0" stroke-linejoin="round" stroke-linecap="butt" d="m125.87622 102.482315l0 34.4252" fill-rule="evenodd"/>
        <path fill="#000000" fill-opacity="0.0" d="m141.81096 118.482315l-31.086617 0" fill-rule="evenodd"/>
        <path stroke="#434343" stroke-width="1.0" stroke-linejoin="round" stroke-linecap="butt" d="m141.81096 118.482315l-31.086617 0" fill-rule="evenodd"/>
        <path fill="#000000" fill-opacity="0.0" d="m142.60063 159.08994l-16.724411 -23.118118" fill-rule="evenodd"/>
        <path stroke="#434343" stroke-width="1.0" stroke-linejoin="round" stroke-linecap="butt" d="m142.60063 159.08994l-16.724411 -23.118118" fill-rule="evenodd"/>
        <path fill="#000000" fill-opacity="0.0" d="m109.26362 159.5909l16.724403 -23.118118" fill-rule="evenodd"/>
        <path stroke="#434343" stroke-width="1.0" stroke-linejoin="round" stroke-linecap="butt" d="m109.26362 159.5909l16.724403 -23.118118" fill-rule="evenodd"/>
        <path fill="#000000" fill-opacity="0.0" d="m9.667577 85.322266l49.54331 0l0 16.59842l-49.54331 0z" fill-rule="evenodd"/>
        <path fill="#000000" d="m19.47541 97.46148l0 -7.625l1.53125 0l0 7.625l-1.53125 0zm2.4762726 -1.578125l1.46875 -0.21875q0.09375 0.421875 0.375 0.640625q0.296875 0.21875 0.796875 0.21875q0.578125 0 0.859375 -0.203125q0.1875 -0.140625 0.1875 -0.390625q0 -0.171875 -0.09375 -0.28125q-0.109375 -0.09375 -0.5 -0.1875q-1.765625 -0.390625 -2.234375 -0.703125q-0.65625 -0.453125 -0.65625 -1.25q0 -0.71875 0.5625 -1.203125q0.578125 -0.5 1.765625 -0.5q1.125 0 1.671875 0.375q0.5625 0.375 0.765625 1.09375l-1.375 0.25q-0.09375 -0.3125 -0.34375 -0.484375q-0.234375 -0.171875 -0.703125 -0.171875q-0.5625 0 -0.8125 0.15625q-0.171875 0.109375 -0.171875 0.296875q0 0.15625 0.140625 0.265625q0.203125 0.140625 1.359375 0.40625q1.171875 0.265625 1.640625 0.65625q0.453125 0.390625 0.453125 1.078125q0 0.765625 -0.640625 1.3125q-0.625 0.546875 -1.875 0.546875q-1.125 0 -1.78125 -0.453125q-0.65625 -0.46875 -0.859375 -1.25zm5.9264984 0l1.46875 -0.21875q0.09375 0.421875 0.375 0.640625q0.296875 0.21875 0.796875 0.21875q0.578125 0 0.859375 -0.203125q0.1875 -0.140625 0.1875 -0.390625q0 -0.171875 -0.09375 -0.28125q-0.109375 -0.09375 -0.5 -0.1875q-1.765625 -0.390625 -2.234375 -0.703125q-0.65625 -0.453125 -0.65625 -1.25q0 -0.71875 0.5625 -1.203125q0.578125 -0.5 1.765625 -0.5q1.125 0 1.671875 0.375q0.5625 0.375 0.765625 1.09375l-1.375 0.25q-0.09375 -0.3125 -0.34375 -0.484375q-0.234375 -0.171875 -0.703125 -0.171875q-0.5625 0 -0.8125 0.15625q-0.171875 0.109375 -0.171875 0.296875q0 0.15625 0.140625 0.265625q0.203125 0.140625 1.359375 0.40625q1.171875 0.265625 1.640625 0.65625q0.453125 0.390625 0.453125 1.078125q0 0.765625 -0.640625 1.3125q-0.625 0.546875 -1.875 0.546875q-1.125 0 -1.78125 -0.453125q-0.65625 -0.46875 -0.859375 -1.25zm10.082748 1.578125l0 -0.828125q-0.3125 0.4375 -0.8125 0.703125q-0.484375 0.25 -1.015625 0.25q-0.5625 0 -1.015625 -0.234375q-0.4375 -0.25 -0.640625 -0.6875q-0.1875 -0.453125 -0.1875 -1.234375l0 -3.5l1.46875 0l0 2.546875q0 1.15625 0.078125 1.421875q0.078125 0.265625 0.28125 0.421875q0.21875 0.15625 0.546875 0.15625q0.375 0 0.671875 -0.203125q0.296875 -0.21875 0.40625 -0.515625q0.109375 -0.3125 0.109375 -1.484375l0 -2.34375l1.46875 0l0 5.53125l-1.359375 0zm6.0717583 -1.765625l1.453125 0.25q-0.28125 0.796875 -0.890625 1.21875q-0.609375 0.421875 -1.515625 0.421875q-1.4374962 0 -2.1249962 -0.9375q-0.546875 -0.765625 -0.546875 -1.90625q0 -1.375 0.71875 -2.15625q0.7187462 -0.78125 1.8124962 -0.78125q1.234375 0 1.9375 0.828125q0.71875 0.8125 0.6875 2.484375l-3.65625 0q0.015625 0.65625 0.34375 1.015625q0.34375 0.359375 0.84375 0.359375q0.34375 0 0.578125 -0.1875q0.234375 -0.1875 0.359375 -0.609375zm0.078125 -1.46875q-0.015625 -0.640625 -0.328125 -0.96875q-0.3125 -0.328125 -0.765625 -0.328125q-0.46875 0 -0.78125 0.34375q-0.3125 0.359375 -0.3125 0.953125l2.1875 0zm4.0514984 3.234375l-1.46875 0l0 -5.53125l1.359375 0l0 0.796875q0.34375 -0.5625 0.625 -0.734375q0.28125 -0.1875 0.625 -0.1875q0.5 0 0.96875 0.28125l-0.453125 1.28125q-0.375 -0.25 -0.6875 -0.25q-0.3125 0 -0.53125 0.171875q-0.203125 0.171875 -0.328125 0.625q-0.109375 0.4375 -0.109375 1.84375l0 1.703125z" fill-rule="nonzero"/>
        <path fill="#000000" fill-opacity="0.0" d="m101.16102 160.25745l49.543297 0l0 16.598434l-49.543297 0z" fill-rule="evenodd"/>
        <path fill="#000000" d="m109.83979 172.39667l0 -7.625l1.546875 0l0 3.0l3.015625 0l0 -3.0l1.53125 0l0 7.625l-1.53125 0l0 -3.328125l-3.015625 0l0 3.328125l-1.546875 0zm7.3362274 -2.84375q0 -0.71875 0.359375 -1.40625q0.359375 -0.6875 1.015625 -1.046875q0.671875 -0.359375 1.46875 -0.359375q1.265625 0 2.0625 0.828125q0.796875 0.8125 0.796875 2.046875q0 1.25 -0.8125 2.078125q-0.796875 0.828125 -2.03125 0.828125q-0.75 0 -1.453125 -0.34375q-0.6875 -0.34375 -1.046875 -1.0q-0.359375 -0.671875 -0.359375 -1.625zm1.5 0.078125q0 0.828125 0.390625 1.265625q0.390625 0.4375 0.96875 0.4375q0.5625 0 0.953125 -0.4375q0.390625 -0.4375 0.390625 -1.265625q0 -0.8125 -0.390625 -1.25q-0.390625 -0.4375 -0.953125 -0.4375q-0.578125 0 -0.96875 0.4375q-0.390625 0.4375 -0.390625 1.25zm5.353012 2.765625l0 -7.625l1.46875 0l0 7.625l-1.46875 0zm8.02314 0l-1.359375 0l0 -0.8125q-0.328125 0.46875 -0.796875 0.703125q-0.453125 0.234375 -0.921875 0.234375q-0.953125 0 -1.6406174 -0.765625q-0.671875 -0.765625 -0.671875 -2.140625q0 -1.40625 0.65625 -2.140625q0.671875 -0.734375 1.6718674 -0.734375q0.921875 0 1.609375 0.78125l0 -2.75l1.453125 0l0 7.625zm-3.890625 -2.875q0 0.875 0.234375 1.265625q0.359375 0.578125 0.984375 0.578125q0.515625 0 0.859375 -0.421875q0.359375 -0.4375 0.359375 -1.28125q0 -0.953125 -0.34375 -1.375q-0.34375 -0.421875 -0.875 -0.421875q-0.515625 0 -0.875 0.421875q-0.34375 0.40625 -0.34375 1.234375zm8.540512 1.109375l1.453125 0.25q-0.28125 0.796875 -0.890625 1.21875q-0.609375 0.421875 -1.515625 0.421875q-1.4375 0 -2.125 -0.9375q-0.546875 -0.765625 -0.546875 -1.90625q0 -1.375 0.71875 -2.15625q0.71875 -0.78125 1.8125 -0.78125q1.234375 0 1.9375 0.828125q0.71875 0.8125 0.6875 2.484375l-3.65625 0q0.015625 0.65625 0.34375 1.015625q0.34375 0.359375 0.84375 0.359375q0.34375 0 0.578125 -0.1875q0.234375 -0.1875 0.359375 -0.609375zm0.078125 -1.46875q-0.015625 -0.640625 -0.328125 -0.96875q-0.3125 -0.328125 -0.765625 -0.328125q-0.46875 0 -0.78125 0.34375q-0.3125 0.359375 -0.3125 0.953125l2.1875 0zm4.0514984 3.234375l-1.46875 0l0 -5.53125l1.359375 0l0 0.796875q0.34375 -0.5625 0.625 -0.734375q0.28125 -0.1875 0.625 -0.1875q0.5 0 0.96875 0.28125l-0.453125 1.28125q-0.375 -0.25 -0.6875 -0.25q-0.3125 0 -0.53125 0.171875q-0.203125 0.171875 -0.328125 0.625q-0.109375 0.4375 -0.109375 1.84375l0 1.703125z" fill-rule="nonzero"/>
        <path fill="#000000" fill-opacity="0.0" d="m197.77724 86.11983l49.54332 0l0 16.59842l-49.54332 0z" fill-rule="evenodd"/>
        <path fill="#000000" d="m207.19966 98.25903l-2.71875 -7.625l1.671875 0l1.921875 5.640625l1.875 -5.640625l1.625 0l-2.734375 7.625l-1.640625 0zm7.7690887 -1.765625l1.453125 0.25q-0.28125 0.796875 -0.890625 1.21875q-0.609375 0.421875 -1.515625 0.421875q-1.4375 0 -2.125 -0.9375q-0.546875 -0.765625 -0.546875 -1.90625q0 -1.375 0.71875 -2.15625q0.71875 -0.78125 1.8125 -0.78125q1.234375 0 1.9375 0.828125q0.71875 0.8125 0.6875 2.484375l-3.65625 0q0.015625 0.65625 0.34375 1.015625q0.34375 0.359375 0.84375 0.359375q0.34375 0 0.578125 -0.1875q0.234375 -0.1875 0.359375 -0.609375zm0.078125 -1.46875q-0.015625 -0.640625 -0.328125 -0.96875q-0.3125 -0.328125 -0.765625 -0.328125q-0.46875 0 -0.78125 0.34375q-0.3125 0.359375 -0.3125 0.953125l2.1875 0zm4.0514984 3.234375l-1.46875 0l0 -5.53125l1.359375 0l0 0.796875q0.34375 -0.5625 0.625 -0.734375q0.28125 -0.1875 0.625 -0.1875q0.5 0 0.96875 0.28125l-0.453125 1.28125q-0.375 -0.25 -0.6875 -0.25q-0.3125 0 -0.53125 0.171875q-0.203125 0.171875 -0.328125 0.625q-0.109375 0.4375 -0.109375 1.84375l0 1.703125zm2.740738 -6.28125l0 -1.34375l1.46875 0l0 1.34375l-1.46875 0zm0 6.28125l0 -5.53125l1.46875 0l0 5.53125l-1.46875 0zm2.3200226 -5.53125l0.8125 0l0 -0.40625q0 -0.703125 0.140625 -1.046875q0.15625 -0.34375 0.546875 -0.5625q0.40625 -0.21875 1.015625 -0.21875q0.625 0 1.21875 0.1875l-0.203125 1.03125q-0.34375 -0.09375 -0.671875 -0.09375q-0.3125 0 -0.453125 0.15625q-0.125 0.140625 -0.125 0.5625l0 0.390625l1.078125 0l0 1.15625l-1.078125 0l0 4.375l-1.46875 0l0 -4.375l-0.8125 0l0 -1.15625zm4.1892395 -0.75l0 -1.34375l1.46875 0l0 1.34375l-1.46875 0zm0 6.28125l0 -5.53125l1.46875 0l0 5.53125l-1.46875 0zm6.1637726 -1.765625l1.453125 0.25q-0.28125 0.796875 -0.890625 1.21875q-0.609375 0.421875 -1.515625 0.421875q-1.4375 0 -2.125 -0.9375q-0.546875 -0.765625 -0.546875 -1.90625q0 -1.375 0.71875 -2.15625q0.71875 -0.78125 1.8125 -0.78125q1.234375 0 1.9375 0.828125q0.71875 0.8125 0.6875 2.484375l-3.65625 0q0.015625 0.65625 0.34375 1.015625q0.34375 0.359375 0.84375 0.359375q0.34375 0 0.578125 -0.1875q0.234375 -0.1875 0.359375 -0.609375zm0.078125 -1.46875q-0.015625 -0.640625 -0.328125 -0.96875q-0.3125 -0.328125 -0.765625 -0.328125q-0.46875 0 -0.78125 0.34375q-0.3125 0.359375 -0.3125 0.953125l2.1875 0zm4.0514984 3.234375l-1.46875 0l0 -5.53125l1.359375 0l0 0.796875q0.34375 -0.5625 0.625 -0.734375q0.28125 -0.1875 0.625 -0.1875q0.5 0 0.96875 0.28125l-0.453125 1.28125q-0.375 -0.25 -0.6875 -0.25q-0.3125 0 -0.53125 0.171875q-0.203125 0.171875 -0.328125 0.625q-0.109375 0.4375 -0.109375 1.84375l0 1.703125z" fill-rule="nonzero"/>
    </g>
</svg>
